<svg xmlns="http://www.w3.org/2000/svg" id="Layer_1" width="50" height="50" fill="#fff" data-name="Layer 1" viewBox="0 0 48 48"><g id="SVGRepo_iconCarrier"><defs><style>.cls-1{fill:none;stroke:#fff;stroke-linecap:round;stroke-linejoin:round}</style></defs><path d="m12.62 24.31 5.32-12.89M23.04 24.35l-5.1-12.93M21.34 20.02h-6.95M32.63 25.38h6.72M35.68 25.38c0 4.34-5.29 11.51-10.59 12.61" class="cls-1"/><path d="M27.93 32.79c2.13 2.4 5.61 4.74 8.82 5.2" class="cls-1"/><rect width="24.67" height="24.67" x="5.5" y="5.5" class="cls-1" rx="3.64" ry="3.64"/><path d="M17.83 30.17v8.69c0 2 1.64 3.64 3.64 3.64h17.38c2 0 3.64-1.64 3.64-3.64V21.47c0-2-1.64-3.64-3.64-3.64h-8.69" class="cls-1"/></g></svg>